<svg class="svg-icon" style="width: 1em; height: 1em;vertical-align: middle;fill: currentColor;overflow: hidden;" viewBox="0 0 1024 1024" version="1.1" xmlns="http://www.w3.org/2000/svg"><path d="M512 981.333333C252.8 981.333333 42.666667 771.2 42.666667 512S252.8 42.666667 512 42.666667s469.333333 210.133333 469.333333 469.333333-210.133333 469.333333-469.333333 469.333333z m0-85.333333c212.074667 0 384-171.925333 384-384S724.074667 128 512 128 128 299.925333 128 512s171.925333 384 384 384z m42.666667-154.624V789.333333a42.666667 42.666667 0 1 1-85.333334 0v-47.552a192.64 192.64 0 0 1-58.304-24.533333c-17.621333-11.008-30.250667-22.336-37.824-30.997333a42.666667 42.666667 0 0 1 64.256-56.149334c2.432 2.794667 8.981333 8.661333 18.816 14.805334 16.512 10.325333 35.093333 16.426667 55.530667 16.426666 40.106667 0 66.304-23.765333 64.064-44.330666-2.112-19.285333-19.904-34.133333-76.714667-63.594667l-6.805333-3.541333a43.584 43.584 0 0 1-0.746667-0.384l-6.037333-3.136c-82.837333-42.944-115.754667-70.4-122.261333-130.069334-6.848-62.677333 40.042667-116.949333 106.026666-133.653333V234.666667a42.666667 42.666667 0 1 1 85.333334 0v47.552a192.64 192.64 0 0 1 58.304 24.533333c17.621333 11.008 30.250667 22.336 37.824 30.997333a42.666667 42.666667 0 0 1-64.256 56.149334c-2.432-2.794667-8.981333-8.661333-18.816-14.805334-16.512-10.325333-35.093333-16.426667-55.530667-16.426666-40.106667 0-66.304 23.765333-64.064 44.330666 2.112 19.285333 19.904 34.133333 76.714667 63.594667a54588.330667 54588.330667 0 0 1 13.589333 7.04c82.837333 42.965333 115.754667 70.442667 122.261333 130.090667 6.848 62.677333-40.042667 116.949333-106.026666 133.653333z" fill="" /></svg>